<?xml version="1.0" standalone="no"?>
<!DOCTYPE svg PUBLIC "-//W3C//DTD SVG 20010904//EN"
 "http://www.w3.org/TR/2001/REC-SVG-20010904/DTD/svg10.dtd">
<svg version="1.0" xmlns="http://www.w3.org/2000/svg"
 width="1080.000000pt" height="1080.000000pt" viewBox="0 0 1080.000000 1080.000000"
 preserveAspectRatio="xMidYMid meet">

<g transform="translate(0.000000,1080.000000) scale(0.100000,-0.100000)"
fill="#000000" stroke="none">
<path d="M3168 8571 l-39 -39 4 -1514 c3 -1376 4 -1525 21 -1648 97 -750 366
-1243 836 -1537 251 -156 606 -273 967 -317 676 -84 1355 54 1818 367 114 77
289 253 378 377 136 191 259 484 321 760 69 311 80 435 81 873 l0 368 -755 -1
-755 0 -6 -357 c-5 -312 -9 -372 -28 -464 -35 -174 -75 -277 -152 -390 -153
-227 -472 -323 -737 -223 -233 87 -368 271 -444 602 l-22 97 -6 1500 c-4 1172
-8 1505 -17 1522 -7 12 -26 31 -42 42 -29 21 -38 21 -706 21 l-677 0 -40 -39z"/>
<path d="M6086 8577 c-19 -18 -37 -44 -41 -58 -3 -13 -4 -460 -3 -994 l3 -970
755 0 755 0 3 428 2 427 -37 0 c-63 0 -222 29 -313 56 -188 58 -359 164 -505
315 -200 207 -309 452 -331 743 l-7 86 -123 0 -123 0 -35 -33z"/>
<path d="M7679 3021 c-21 -22 -29 -39 -29 -66 0 -92 71 -141 149 -101 37 20
51 55 51 131 l0 65 -71 0 c-65 0 -73 -2 -100 -29z"/>
<path d="M4905 2900 c-134 -27 -216 -111 -234 -241 -25 -187 102 -331 294
-332 92 0 176 41 216 107 l19 31 -48 21 -47 21 -37 -33 c-47 -42 -107 -52
-166 -29 -54 22 -87 61 -102 124 -41 174 143 300 270 184 l40 -35 45 27 46 26
-22 30 c-33 46 -94 86 -150 98 -56 12 -67 12 -124 1z"/>
<path d="M3130 2701 c0 -259 14 -301 118 -349 108 -49 255 -30 327 43 57 56
65 96 65 319 l0 186 -60 0 -60 0 0 -180 c0 -196 -7 -233 -52 -262 -41 -27 -94
-32 -141 -14 -72 27 -77 45 -77 265 l0 191 -60 0 -60 0 0 -199z"/>
<path d="M3944 2876 c-3 -13 -4 -37 -2 -52 l3 -29 128 -3 c102 -2 128 -5 124
-16 -3 -7 -60 -86 -127 -176 -117 -156 -122 -165 -124 -214 l-1 -51 218 -3
217 -2 0 55 0 55 -130 0 c-82 0 -130 4 -130 10 0 6 56 85 125 177 124 164 125
167 125 220 l0 53 -210 0 -210 0 -6 -24z"/>
<path d="M5557 2623 c-59 -153 -107 -282 -107 -286 0 -4 30 -7 66 -5 l66 3 18
45 18 45 119 3 120 3 21 -51 21 -50 65 0 c37 0 66 2 66 5 0 4 -69 181 -190
490 l-27 70 -74 3 -74 3 -108 -278z m227 29 c20 -59 36 -110 36 -115 0 -8
-154 -10 -162 -2 -6 7 75 225 84 225 3 0 22 -48 42 -108z"/>
<path d="M6280 2615 l0 -285 55 0 55 0 0 100 0 100 48 0 49 0 68 -122 c38 -68
80 -144 94 -170 l26 -48 68 0 c37 0 67 2 67 5 0 3 -45 83 -100 177 -55 94 -99
172 -98 173 2 1 20 11 40 24 92 55 104 209 22 281 -48 41 -91 50 -251 50
l-143 0 0 -285z m297 155 c29 -26 36 -55 22 -82 -21 -40 -40 -47 -126 -48
l-83 0 0 75 0 75 83 0 c69 0 87 -3 104 -20z"/>
<path d="M7040 2615 l0 -287 153 4 c181 5 231 21 300 98 51 56 67 103 67 191
0 77 -25 137 -78 193 -65 67 -105 79 -284 84 l-158 4 0 -287z m329 146 c100
-72 90 -241 -19 -298 -34 -18 -59 -23 -117 -23 l-73 0 0 176 0 176 88 -4 c72
-2 93 -7 121 -27z"/>
</g>
</svg>
